<?xml version="1.0" encoding="UTF-8" standalone="no"?>
<svg
   version="1.1"
   id="Layer_1"
   x="0px"
   y="0px"
   viewBox="0 0 250.00001 250"
   xml:space="preserve"
   sodipodi:docname="logoBluehard.svg"
   width="250"
   height="250"
   inkscape:version="1.1.2 (b8e25be833, 2022-02-05)"
   xmlns:inkscape="http://www.inkscape.org/namespaces/inkscape"
   xmlns:sodipodi="http://sodipodi.sourceforge.net/DTD/sodipodi-0.dtd"
   xmlns="http://www.w3.org/2000/svg"
   xmlns:svg="http://www.w3.org/2000/svg"><defs
     id="defs25" /><sodipodi:namedview
     id="namedview23"
     pagecolor="#1976d2"
     bordercolor="#666666"
     borderopacity="0"
     inkscape:pageshadow="2"
     inkscape:pageopacity="1"
     inkscape:pagecheckerboard="true"
     showgrid="false"
     width="250px"
     inkscape:snap-grids="false"
     inkscape:zoom="3.5019063"
     inkscape:cx="87.523757"
     inkscape:cy="110.7968"
     inkscape:window-width="3440"
     inkscape:window-height="1417"
     inkscape:window-x="1358"
     inkscape:window-y="-8"
     inkscape:window-maximized="1"
     inkscape:current-layer="g20"
     showborder="true" /><g
     id="g20"
     transform="translate(-4.688541,4.3282205)"><path
       d="m 130.03854,73.199532 c 3.38,0 6.61,0.67 9.56,1.89 3.06,1.27 5.82,3.13 8.12,5.43 2.3,2.3 4.16,5.06 5.43,8.12 1.22,2.95 1.89,6.18 1.89,9.56 0,3.389998 -0.67,6.609998 -1.89,9.559998 -1.27,3.06 -3.13,5.82 -5.43,8.12 -2.3,2.3 -5.06,4.16 -8.12,5.43 -2.95,1.22 -6.18,1.89 -9.56,1.89 -3.38,0 -6.61,-0.67 -9.56,-1.89 -3.06,-1.27 -5.82,-3.13 -8.12,-5.43 -2.3,-2.3 -4.16,-5.06 -5.43,-8.12 -1.22,-2.95 -1.89,-6.18 -1.89,-9.559998 0,-3.38 0.67,-6.61 1.89,-9.56 1.27,-3.06 3.13,-5.82 5.43,-8.12 2.3,-2.3 5.06,-4.16 8.12,-5.43 2.95,-1.22 6.18,-1.89 9.56,-1.89 z m -47.149998,-5.34 h 23.509998 c 1.47,-1.14 3.07,-2.18 4.78,-3.1 1.74,-0.93 3.59,-1.73 5.53,-2.38 2.03,-0.69 4.17,-1.22 6.38,-1.58 2.16,-0.35 4.39,-0.53 6.66,-0.53 2.27,0 4.5,0.18 6.66,0.53 2.21,0.36 4.35,0.89 6.38,1.58 1.94,0.66 3.79,1.46 5.53,2.38 1.72,0.92 3.32,1.95 4.78,3.1 h 23.38 c 1.97,0 3.86,0.4 5.59,1.11 1.79,0.74 3.41,1.84 4.76,3.19 1.35,1.35 2.44,2.96 3.19,4.76 0.72,1.72 1.11,3.61 1.11,5.59 v 85.089998 c 0,1.97 -0.4,3.86 -1.11,5.59 -0.74,1.79 -1.84,3.41 -3.19,4.76 -1.35,1.35 -2.96,2.44 -4.76,3.19 -1.72,0.72 -3.61,1.11 -5.59,1.11 H 82.888542 c -1.97,0 -3.86,-0.4 -5.59,-1.11 -1.79,-0.74 -3.41,-1.84 -4.76,-3.19 -1.35,-1.35 -2.44,-2.96 -3.19,-4.76 -0.7,-1.74 -1.1,-3.63 -1.1,-5.6 V 82.499532 c 0,-1.97 0.4,-3.86 1.11,-5.59 0.74,-1.79 1.84,-3.41 3.19,-4.76 1.35,-1.35 2.96,-2.44 4.76,-3.19 1.72,-0.71 3.61,-1.1 5.58,-1.1 z m 23.089998,5.18 H 82.888542 c -1.28,0 -2.49,0.26 -3.61,0.72 -1.16,0.48 -2.2,1.19 -3.08,2.06 -0.88,0.88 -1.58,1.92 -2.06,3.08 -0.46,1.11 -0.72,2.33 -0.72,3.61 v 85.089998 c 0,1.28 0.26,2.5 0.72,3.61 0.48,1.16 1.19,2.2 2.06,3.08 0.88,0.88 1.92,1.58 3.08,2.06 1.11,0.46 2.33,0.72 3.61,0.72 h 93.589998 c 1.28,0 2.49,-0.26 3.61,-0.72 1.16,-0.48 2.2,-1.19 3.08,-2.06 0.88,-0.88 1.58,-1.92 2.06,-3.08 0.46,-1.11 0.72,-2.33 0.72,-3.61 V 82.499532 c 0,-1.28 -0.26,-2.5 -0.72,-3.61 -0.48,-1.16 -1.19,-2.2 -2.06,-3.08 -0.88,-0.88 -1.92,-1.58 -3.08,-2.06 -1.11,-0.46 -2.33,-0.72 -3.61,-0.72 h -24.27 c -0.03,0 -0.07,0 -0.1,-0.01 -0.26,-0.01 -0.53,-0.06 -0.78,-0.15 l -0.02,-0.01 c -0.27,-0.1 -0.52,-0.24 -0.75,-0.44 -1.31,-1.09 -2.77,-2.08 -4.36,-2.95 -1.57,-0.86 -3.26,-1.6 -5.05,-2.21 -1.76,-0.6 -3.62,-1.06 -5.56,-1.37 -1.88,-0.3 -3.83,-0.46 -5.85,-0.46 -2.01,0 -3.97,0.16 -5.85,0.46 -1.92,0.33 -3.78,0.79 -5.54,1.38 -1.76,0.59 -3.42,1.32 -4.96,2.16 -1.55,0.84 -2.99,1.81 -4.3,2.87 -0.23,0.23 -0.51,0.41 -0.82,0.53 -0.31,0.13 -0.64,0.19 -0.98,0.19 h -1.31 z m 42.27,26.4 c -0.41,0 -0.79,-0.17 -1.06,-0.44 v 0 c -0.27,-0.27 -0.44,-0.65 -0.44,-1.06 0,-0.42 0.17,-0.79 0.44,-1.06 0.27,-0.27 0.65,-0.44 1.06,-0.44 h 3.02 c -0.19,-2.33 -0.76,-4.56 -1.65,-6.62 -0.91,-2.13 -2.16,-4.08 -3.68,-5.78 l -1.84,1.84 -0.02,0.02 c -0.29,0.28 -0.67,0.42 -1.04,0.42 -0.38,0 -0.77,-0.15 -1.06,-0.44 v 0 c -0.29,-0.29 -0.44,-0.68 -0.44,-1.06 0,-0.39 0.15,-0.77 0.44,-1.06 l 1.81,-1.81 c -1.72,-1.46 -3.68,-2.64 -5.81,-3.5 -2.06,-0.83 -4.29,-1.34 -6.61,-1.49 v 3.23 c 0,0.42 -0.17,0.79 -0.44,1.06 -0.27,0.27 -0.65,0.44 -1.06,0.44 -0.42,0 -0.79,-0.17 -1.06,-0.44 -0.27,-0.27 -0.44,-0.65 -0.44,-1.06 v -3.22 c -2.31,0.18 -4.51,0.73 -6.55,1.59 -2.11,0.89 -4.04,2.1 -5.74,3.58 l 2.1,2.1 c 0.29,0.29 0.44,0.68 0.44,1.06 0,0.39 -0.15,0.77 -0.44,1.06 -0.29,0.29 -0.68,0.44 -1.06,0.44 -0.38,0 -0.77,-0.15 -1.06,-0.44 l -2.1,-2.1 c -1.48,1.71 -2.69,3.65 -3.57,5.77 -0.85,2.05 -1.4,4.26 -1.57,6.58 h 3.34 c 0.42,0 0.79,0.17 1.06,0.44 0.27,0.27 0.44,0.65 0.44,1.06 0,0.41 -0.17,0.79 -0.44,1.06 -0.27,0.27 -0.65,0.44 -1.06,0.44 h -3.35 c 0.15,2.339998 0.68,4.579998 1.53,6.649998 0.87,2.14 2.09,4.1 3.57,5.82 l 2.07,-2.07 c 0.29,-0.29 0.68,-0.44 1.06,-0.44 0.39,0 0.77,0.15 1.06,0.44 0.29,0.29 0.44,0.68 0.44,1.06 0,0.39 -0.15,0.77 -0.44,1.06 l -2.08,2.08 c 1.72,1.51 3.7,2.75 5.84,3.65 2.08,0.87 4.33,1.42 6.69,1.58 v -2.57 c 0,-0.41 0.17,-0.79 0.44,-1.06 v 0 c 0.27,-0.27 0.65,-0.44 1.06,-0.44 0.41,0 0.79,0.17 1.06,0.44 0.27,0.27 0.44,0.65 0.44,1.06 v 2.59 c 2.36,-0.17 4.62,-0.72 6.71,-1.59 2.16,-0.9 4.13,-2.15 5.86,-3.67 l -1.97,-1.97 c -0.29,-0.29 -0.44,-0.68 -0.44,-1.06 0,-0.39 0.15,-0.77 0.44,-1.06 0.29,-0.29 0.68,-0.44 1.06,-0.44 0.39,0 0.77,0.15 1.06,0.44 l 1.95,1.95 c 1.49,-1.74 2.71,-3.73 3.58,-5.89 0.84,-2.1 1.36,-4.36 1.5,-6.719998 h -3.05 z m -16.45,1.339998 v 0 c -0.42,0.46 -0.97,0.71 -1.54,0.75 -0.58,0.04 -1.17,-0.14 -1.65,-0.56 l -0.03,-0.02 c -0.46,-0.41 -0.71,-0.969998 -0.74,-1.529998 -0.04,-0.58 0.14,-1.17 0.56,-1.65 l 7.86,-8.99 c 0.41,-0.47 0.98,-0.73 1.56,-0.77 0.58,-0.04 1.17,0.14 1.65,0.56 0.47,0.41 0.73,0.98 0.77,1.56 0.04,0.58 -0.14,1.17 -0.56,1.65 -2.63,2.99 -5.28,5.98 -7.88,8.999998 z"
       id="path18"
       sodipodi:nodetypes="scscscscscscscscssccccsccccscscsscscsscscsscscscscccsscccsscccsscccsscccccccscscccscccssssscccccssssscccssssscccssssscccssssscccssssscccsssssscccssssscccccssccccccscscs"
       style="fill:#ffffff;fill-opacity:1" /><text
       xml:space="preserve"
       style="font-style:normal;font-variant:normal;font-weight:normal;font-stretch:normal;font-size:37.3333px;line-height:1.25;font-family:'HP Simplified';-inkscape-font-specification:'HP Simplified, Normal';font-variant-ligatures:normal;font-variant-caps:normal;font-variant-numeric:normal;font-variant-east-asian:normal;fill:#ffffff;fill-opacity:1;stroke:none"
       x="11.957958"
       y="53.069088"
       id="text9982"><tspan
         sodipodi:role="line"
         id="tspan9980"
         x="11.957958"
         y="53.069088">Calorie Counter</tspan></text><text
       xml:space="preserve"
       style="font-style:normal;font-variant:normal;font-weight:normal;font-stretch:normal;font-size:32px;line-height:1.25;font-family:'HP Simplified';-inkscape-font-specification:'HP Simplified, Normal';font-variant-ligatures:normal;font-variant-caps:normal;font-variant-numeric:normal;font-variant-east-asian:normal;fill:#ffffff;fill-opacity:1;stroke:none"
       x="44.616585"
       y="211.26865"
       id="text27096"><tspan
         sodipodi:role="line"
         id="tspan27094"
         x="44.616585"
         y="211.26865">Track Weight</tspan></text></g></svg>
